<?xml version="1.0" standalone="no"?>
<!DOCTYPE svg PUBLIC "-//W3C//DTD SVG 20010904//EN"
 "http://www.w3.org/TR/2001/REC-SVG-20010904/DTD/svg10.dtd">
<svg version="1.0" xmlns="http://www.w3.org/2000/svg"
 width="512.000000pt" height="512.000000pt" viewBox="0 0 512.000000 512.000000"
 preserveAspectRatio="xMidYMid meet">

<g transform="translate(0.000000,512.000000) scale(0.100000,-0.100000)"
fill="#000000" stroke="none">
<path d="M3072 4883 c-8 -3 -92 -99 -188 -214 -150 -181 -174 -214 -174 -243
0 -67 72 -120 133 -97 14 5 80 75 147 155 67 81 126 146 130 146 8 0 900
-1065 900 -1074 0 -3 -102 -6 -226 -8 l-226 -3 -24 -28 -24 -28 0 -584 0 -585
29 -32 c24 -27 36 -33 71 -33 35 0 47 6 71 33 l29 32 0 515 0 515 279 0 279 0
31 26 c26 21 31 33 31 69 0 42 -10 56 -579 738 -318 381 -586 697 -596 700
-19 8 -74 8 -93 0z"/>
<path d="M2433 4110 c-12 -5 -137 -147 -277 -315 -248 -297 -256 -308 -256
-350 0 -36 5 -48 31 -69 l31 -26 249 0 249 0 0 -859 c0 -853 0 -858 21 -885
l20 -26 200 0 c114 0 199 -4 199 -9 0 -5 -58 -78 -128 -163 -224 -267 -222
-265 -222 -304 0 -19 5 -44 10 -55 17 -30 68 -52 107 -44 29 5 65 44 293 317
249 298 260 314 260 354 0 51 -33 89 -88 98 -20 3 -135 6 -254 6 l-218 0 0
854 0 855 -24 28 -24 28 -196 3 c-108 2 -196 5 -196 8 0 2 79 99 175 214 142
171 175 216 175 241 0 78 -67 127 -137 99z"/>
<path d="M1447 2919 c-46 -27 -47 -34 -47 -604 l0 -535 -247 0 c-137 0 -265
-3 -285 -6 -55 -9 -88 -47 -88 -99 0 -41 15 -60 566 -721 311 -373 576 -689
590 -701 34 -31 94 -31 128 0 14 12 97 109 186 216 147 178 160 197 160 233 0
81 -91 127 -153 78 -15 -12 -77 -81 -138 -155 -62 -74 -115 -135 -119 -135 -9
0 -889 1056 -897 1076 -4 12 29 14 225 14 l231 0 20 26 c21 26 21 35 21 636 0
551 -2 613 -17 638 -26 45 -92 64 -136 39z"/>
</g>
</svg>
