<?xml version="1.0" standalone="no"?>
<!DOCTYPE svg PUBLIC "-//W3C//DTD SVG 20010904//EN"
 "http://www.w3.org/TR/2001/REC-SVG-20010904/DTD/svg10.dtd">
<svg version="1.0" xmlns="http://www.w3.org/2000/svg"
 width="512.000000pt" height="512.000000pt" viewBox="0 0 512.000000 512.000000"
 preserveAspectRatio="xMidYMid meet">

<g transform="translate(0.000000,512.000000) scale(0.100000,-0.100000)"
fill="#000000" stroke="none">
<path d="M2330 5114 c-85 -6 -269 -34 -335 -50 -88 -21 -214 -71 -260 -103
-72 -49 -72 -44 48 -404 96 -289 106 -323 91 -332 -38 -22 -86 -70 -101 -99
-21 -41 -21 -132 1 -173 15 -31 15 -35 0 -65 -22 -42 -22 -133 -1 -174 9 -17
33 -46 53 -64 31 -27 35 -34 21 -41 -38 -22 -180 -133 -264 -208 -513 -455
-1027 -1398 -1095 -2010 -41 -374 146 -711 545 -977 545 -365 1389 -503 2153
-354 56 11 104 20 107 20 5 0 -5 52 -23 121 l-10 36 -88 -17 c-205 -42 -339
-54 -612 -54 -193 0 -300 5 -393 17 -881 118 -1493 545 -1524 1062 -13 223
100 611 290 990 95 191 143 274 263 455 272 412 570 704 879 864 l90 46 396 0
395 0 85 -43 c175 -90 327 -206 504 -388 178 -183 342 -398 476 -625 l62 -104
56 31 c90 51 89 39 3 182 -216 358 -499 685 -760 879 -57 42 -108 78 -115 81
-6 2 5 18 26 37 21 18 45 47 54 64 21 41 21 132 -1 174 -15 30 -15 34 0 65 22
41 22 132 1 173 -15 29 -63 77 -101 99 -15 9 -6 42 89 325 58 173 105 324 105
336 0 78 -204 167 -480 209 -102 15 -508 28 -630 19z m613 -178 c110 -18 218
-43 230 -56 10 -9 -95 -35 -232 -56 -139 -21 -450 -29 -615 -15 -133 11 -321
42 -369 60 -22 9 -22 9 6 20 46 18 219 50 323 60 140 14 538 5 657 -13z m-889
-251 c324 -65 774 -59 1081 14 44 11 81 18 82 17 2 -1 -33 -108 -76 -237 l-78
-234 -503 0 -503 0 -74 220 c-40 121 -76 229 -79 239 -5 15 -3 18 11 12 10 -3
72 -17 139 -31z m1140 -627 c8 -13 8 -23 0 -35 -10 -17 -53 -18 -629 -21 -448
-1 -622 1 -631 9 -17 14 -18 41 -2 57 9 9 158 12 631 10 578 -3 621 -4 631
-20z m0 -240 c8 -13 8 -23 0 -35 -10 -17 -53 -18 -629 -21 -448 -1 -622 1
-631 9 -17 14 -18 41 -2 57 9 9 158 12 631 10 578 -3 621 -4 631 -20z"/>
<path d="M1117 5042 c-26 -26 -47 -52 -47 -57 0 -6 106 -116 235 -245 l235
-235 57 58 58 57 -235 235 c-129 129 -240 235 -245 235 -6 0 -32 -22 -58 -48z"/>
<path d="M3702 4857 c-127 -127 -232 -237 -232 -242 0 -13 92 -105 105 -105 6
0 116 106 245 235 l235 235 -55 55 c-30 30 -57 55 -60 55 -3 0 -110 -105 -238
-233z"/>
<path d="M3966 4474 c-257 -171 -473 -317 -478 -322 -14 -14 69 -135 87 -128
21 8 945 625 945 631 0 3 -19 34 -42 69 l-43 63 -469 -313z"/>
<path d="M641 4721 c-23 -33 -41 -62 -41 -65 0 -6 924 -624 945 -632 8 -3 29
18 54 55 23 33 41 62 41 65 0 6 -924 624 -945 632 -8 3 -29 -18 -54 -55z"/>
<path d="M448 4548 c-22 -8 -41 -36 -95 -142 l-67 -133 -135 -69 c-147 -75
-165 -94 -145 -151 7 -23 35 -41 145 -97 l136 -69 69 -136 c56 -110 74 -138
97 -145 57 -20 76 -2 151 145 l69 136 136 69 c110 56 138 74 145 97 20 57 2
76 -145 151 l-135 69 -67 133 c-58 114 -72 134 -99 143 -17 6 -31 11 -32 10
-1 0 -13 -5 -28 -11z m72 -326 c32 -62 40 -70 102 -102 38 -19 68 -37 68 -40
0 -3 -30 -21 -68 -40 -62 -32 -70 -40 -102 -102 -19 -38 -37 -68 -40 -68 -3 0
-21 30 -40 68 -32 62 -40 70 -102 102 -38 19 -68 37 -68 40 0 3 30 21 68 40
62 32 70 40 102 102 19 38 37 68 40 68 3 0 21 -30 40 -68z"/>
<path d="M4608 3588 c-22 -8 -41 -36 -95 -142 l-67 -133 -135 -69 c-147 -75
-165 -94 -145 -151 7 -23 35 -41 145 -97 l136 -69 69 -136 c56 -110 74 -138
97 -145 57 -20 76 -2 151 145 l69 136 136 69 c147 75 165 94 145 152 -7 22
-35 40 -145 96 l-137 70 -58 118 c-75 152 -104 179 -166 156z m72 -326 c32
-62 40 -70 102 -102 38 -19 68 -37 68 -40 0 -3 -30 -21 -68 -40 -62 -32 -70
-40 -102 -102 -19 -38 -37 -68 -40 -68 -3 0 -21 30 -40 68 -32 62 -40 70 -102
102 -38 19 -68 37 -68 40 0 3 30 21 68 40 62 32 70 40 102 102 19 38 37 68 40
68 3 0 21 -30 40 -68z"/>
<path d="M2480 2881 l0 -78 -80 -6 c-364 -25 -531 -465 -275 -722 41 -41 88
-70 204 -129 l151 -77 0 -334 0 -335 -160 0 -160 0 0 40 0 40 -80 0 -80 0 0
-95 c0 -88 2 -98 25 -120 24 -25 24 -25 240 -25 l215 0 0 -80 0 -80 80 0 80 0
0 79 0 78 80 6 c363 25 531 466 275 722 -41 41 -88 70 -204 129 l-151 77 0
334 0 335 80 0 80 0 0 -40 0 -40 80 0 80 0 0 95 c0 88 -2 98 -25 120 -23 24
-29 25 -160 25 l-135 0 0 80 0 80 -80 0 -80 0 0 -79z m0 -536 l0 -296 -110 56
c-76 39 -121 69 -144 97 -150 174 -27 434 207 437 l47 1 0 -295z m413 -706
c151 -176 26 -439 -210 -439 l-43 0 0 295 0 295 109 -54 c77 -39 119 -67 144
-97z"/>
<path d="M3970 2389 c-356 -40 -635 -192 -734 -399 l-31 -65 0 -725 0 -725 31
-65 c17 -36 50 -86 74 -113 190 -214 612 -332 1028 -286 367 39 645 188 746
399 l31 65 0 725 0 725 -31 65 c-38 80 -96 146 -179 205 -220 157 -587 233
-935 194z m365 -160 c195 -24 386 -92 498 -177 26 -20 64 -61 85 -90 32 -48
37 -61 37 -115 0 -118 -74 -207 -240 -288 -316 -154 -780 -158 -1095 -8 -108
51 -171 100 -218 168 -34 49 -37 59 -37 121 0 62 3 72 37 121 136 197 547 315
933 268z m-905 -755 c368 -260 1105 -255 1475 10 27 20 51 32 53 26 6 -18 -20
-84 -50 -126 -107 -150 -430 -264 -748 -264 -254 0 -526 76 -673 188 -58 45
-113 123 -123 176 -8 44 -10 44 66 -10z m0 -320 c368 -260 1105 -255 1475 10
27 20 51 32 53 26 6 -18 -20 -84 -50 -126 -107 -150 -430 -264 -748 -264 -254
0 -526 76 -673 188 -58 45 -113 123 -123 176 -8 44 -10 44 66 -10z m0 -320
c368 -260 1105 -255 1475 10 27 20 51 32 53 26 6 -18 -20 -84 -50 -126 -107
-150 -430 -264 -748 -264 -254 0 -526 76 -673 188 -58 45 -113 123 -123 176
-8 44 -10 44 66 -10z m0 -320 c368 -260 1105 -255 1475 10 27 20 51 32 53 26
6 -18 -20 -84 -50 -126 -107 -150 -430 -264 -748 -264 -254 0 -526 76 -673
188 -58 45 -113 123 -123 176 -8 44 -10 44 66 -10z"/>
<path d="M3959 2145 c-186 -29 -341 -104 -404 -193 -26 -38 -30 -52 -30 -112
0 -60 4 -74 30 -112 135 -192 622 -268 975 -152 198 66 296 183 261 311 -16
63 -52 107 -121 152 -155 100 -457 145 -711 106z m357 -156 c169 -23 319 -93
319 -149 0 -77 -245 -160 -475 -160 -230 0 -475 83 -475 160 0 53 152 126 310
149 88 12 232 13 321 0z"/>
</g>
</svg>
